<svg t="1679126520902" class="icon" viewBox="0 0 1024 1024" version="1.1" xmlns="http://www.w3.org/2000/svg" p-id="1310" width="200" height="200"><path d="M666.48064 677.94432s-43.30496-29.1328-90.9824 19.54816c0 0-39.26016 43.61216-82.57536-12.00128 0 0-119.69536-131.42016-156.54912-278.33344 0 0-8.94976-25.89696 24.82176-31.27296 0 0 90.97216-19.5328 101.90848-60.57472L408.81152 36.75136S392.41728-14.06976 328.8064 15.22688c0 0-108.66688 27.76064-156.28288 74.43456l-8.82688 20.03968-9.71776 78.46912s5.09952 531.06176 464.86528 828.8768c0 0 157.42976 48.41984 243.83488-110.32064l10.98752-41.04192-207.18592-187.74016z" fill="#fff" p-id="1311"></path></svg>