<svg t="1679135701487" class="icon" viewBox="0 0 1024 1024" version="1.1" xmlns="http://www.w3.org/2000/svg" p-id="1308" width="200" height="200"><path d="M780.7 522.6c-8.3-14.3-26.7-19.2-41-11L512 643.1 284.3 511.6c-14.3-8.2-32.7-3.3-41 11-8.3 14.3-3.3 32.7 11 41l242.5 140c4.7 2.7 9.8 4 14.9 4h0.8c5.1 0 10.2-1.3 14.9-4l242.5-140c14.1-8.3 19.1-26.7 10.8-41z" fill="#B3B3B3" p-id="1309"></path><path d="M254.3 366l242.5 140c4.7 2.7 9.8 4 14.9 4h0.8c5.1 0 10.2-1.3 14.9-4l242.5-140c14.3-8.2 19.2-26.7 11-41-8.3-14.3-26.7-19.2-41-11L512 445.5 284.3 314c-14.3-8.2-32.7-3.3-41 11-8.3 14.3-3.3 32.7 11 41z" fill="#B3B3B3" p-id="1310"></path></svg>