<svg t="1679135731295" class="icon" viewBox="0 0 1024 1024" version="1.1" xmlns="http://www.w3.org/2000/svg" p-id="1455" width="200" height="200"><path d="M243.3 495c8.3 14.3 26.7 19.2 41 11L512 374.5 739.7 506c14.3 8.2 32.7 3.3 41-11 8.3-14.3 3.3-32.7-11-41L527.3 314c-4.7-2.7-9.8-4-14.9-4h-0.8c-5.1 0-10.2 1.3-14.9 4L254.3 454c-14.3 8.3-19.3 26.7-11 41z" fill="#B3B3B3" p-id="1456"></path><path d="M769.7 651.6l-242.5-140c-4.7-2.7-9.8-4-14.9-4h-0.8c-5.1 0-10.2 1.3-14.9 4l-242.5 140c-14.3 8.2-19.2 26.7-11 41 8.3 14.3 26.7 19.2 41 11L512 572.1l227.7 131.5c14.3 8.2 32.7 3.3 41-11 8.3-14.3 3.3-32.7-11-41z" fill="#B3B3B3" p-id="1457"></path></svg>